<svg width="1584" height="1149" viewBox="0 0 1584 1149" fill="none" xmlns="http://www.w3.org/2000/svg">
<path d="M192.3 1028.82C165.254 1028.82 141.369 1023.39 120.646 1012.54C99.9224 1001.68 83.7653 986.389 72.1742 966.656C60.9343 946.594 55.3145 923.57 55.3145 897.589V806.814C55.3145 780.833 60.9343 757.974 72.1742 738.24C83.7653 718.179 99.9224 702.72 120.646 691.867C141.721 681.013 165.957 675.586 193.354 675.586H252.363C278.706 675.586 301.888 680.52 321.909 690.387C341.929 700.253 357.385 714.232 368.273 732.32C379.514 750.408 385.132 771.294 385.132 794.974H313.479C313.479 777.214 307.859 762.907 296.62 752.054C285.38 741.2 270.627 735.774 252.363 735.774H193.354C173.684 735.774 157.878 742.68 145.936 756.494C133.993 769.979 128.022 787.74 128.022 809.774V894.628C128.022 916.663 133.818 934.589 145.409 948.402C157.351 961.888 172.982 968.629 192.3 968.629H254.47C272.384 968.629 287.136 962.544 298.727 950.376C310.669 938.208 316.64 923.077 316.64 904.989V894.135H214.428V834.935H388.294V904.989C388.294 928.997 382.675 950.376 371.434 969.122C360.196 987.869 344.39 1002.5 324.017 1013.03C303.645 1023.56 280.462 1028.82 254.47 1028.82H192.3ZM438.829 778.694H505.214V810.268C511.887 800.729 521.37 793.001 533.665 787.081C546.31 780.833 559.481 777.707 573.18 777.707H609.007V835.921H573.18C554.563 835.921 539.46 841.182 527.869 851.708C516.278 862.234 510.483 875.716 510.483 892.162V1024.87H438.829V778.694ZM733.973 1028.82C711.844 1028.82 692.174 1024.87 674.964 1016.98C658.104 1008.76 644.932 997.243 635.449 982.443C626.315 967.643 621.75 950.541 621.75 931.135V873.415C621.75 854.009 626.492 836.908 635.976 822.108C645.459 806.98 658.631 795.302 675.491 787.081C692.7 778.86 712.371 774.747 734.5 774.747H781.918C804.046 774.747 823.54 778.86 840.4 787.081C857.61 795.302 870.958 806.98 880.442 822.108C889.925 836.908 894.667 854.009 894.667 873.415V931.135C894.667 950.541 889.925 967.643 880.442 982.443C870.958 997.243 857.61 1008.76 840.4 1016.98C823.54 1024.87 803.869 1028.82 781.391 1028.82H733.973ZM780.337 971.096C793.332 971.096 803.696 966.984 811.422 958.762C819.148 950.21 823.013 939.194 823.013 925.709V877.855C823.013 864.369 819.148 853.516 811.422 845.295C803.696 836.742 793.509 832.468 780.864 832.468H735.553C722.909 832.468 712.721 836.742 704.995 845.295C697.269 853.516 693.404 864.369 693.404 877.855V925.709C693.404 939.194 697.269 950.21 704.995 958.762C712.721 966.984 722.732 971.096 735.027 971.096H780.337ZM1034.15 1028.82C1006.41 1028.82 984.102 1020.1 967.242 1002.67C950.383 984.909 941.953 961.723 941.953 933.109V778.694H1013.61V934.096C1013.61 944.949 1016.42 953.829 1022.04 960.736C1028.01 967.315 1035.73 970.603 1045.22 970.603H1075.78C1087.37 970.603 1097.91 966.163 1107.39 957.282C1116.87 948.075 1123.55 936.069 1127.41 921.269V778.694H1199.06V1024.87H1132.68V993.296C1124.6 1003.82 1114.59 1012.37 1102.65 1018.95C1091.06 1025.53 1079.82 1028.82 1068.93 1028.82H1034.15ZM1260 778.694H1326.39V805.334C1333.76 796.126 1343.07 788.726 1354.31 783.134C1365.9 777.542 1377.14 774.747 1388.03 774.747H1421.22C1442.3 774.747 1460.91 778.86 1477.07 787.081C1493.23 794.974 1505.7 806.155 1514.48 820.628C1523.26 835.1 1527.65 851.708 1527.65 870.455V925.709C1527.65 946.101 1523.26 964.189 1514.48 979.976C1505.7 995.435 1493.4 1007.44 1477.6 1015.99C1461.79 1024.54 1443.53 1028.82 1422.8 1028.82H1388.56C1378.72 1028.82 1368.53 1026.68 1358 1022.4C1347.81 1018.13 1339.03 1012.37 1331.65 1005.14V1123.54H1260V778.694ZM1413.32 971.096C1426.31 971.096 1436.68 966.49 1444.4 957.282C1452.13 948.075 1455.99 935.903 1455.99 920.775V875.388C1455.99 862.562 1451.96 852.201 1443.88 844.308C1436.15 836.415 1425.79 832.468 1412.79 832.468H1380.65C1370.47 832.468 1360.81 836.415 1351.68 844.308C1342.54 851.874 1335.87 861.74 1331.65 873.908V922.749C1333.41 937.221 1338.68 948.896 1347.46 957.776C1356.59 966.656 1367.66 971.096 1380.65 971.096H1413.32Z" fill="#8298D4"/>
<path d="M641.147 531.532C713.677 531.532 772.474 474.532 772.474 404.219C772.474 333.906 713.677 276.906 641.147 276.906C568.616 276.906 509.819 333.906 509.819 404.219C509.819 474.532 568.616 531.532 641.147 531.532Z" fill="#8298D4"/>
<path d="M676.715 371.872V336.246H661.667V355.369L641.146 331.014L575.481 409.521H591.899V477.561H628.834L629.106 424.067H653.458V477.561H690.393V409.521H706.811L676.715 371.872Z" fill="#F9F6F6"/>
<path d="M376.903 286.302H411.507L413.002 322.901C424.121 308.603 436.072 298.036 448.853 291.197C461.634 284.359 476.321 280.94 492.919 280.94H497.648V316.607H492.172C472.919 316.607 456.321 320.103 442.381 327.099C428.438 334.092 418.893 344.814 413.75 359.268V521.983H376.903V286.302ZM799.05 286.535H829.672L834.152 318.006C842.949 304.796 853.905 295.393 867.015 289.799C880.296 284.048 898.053 281.173 920.294 281.173C944.693 281.173 964.193 285.214 978.799 293.295C993.406 301.221 1004.03 313.965 1010.67 331.526C1017.47 348.933 1020.87 372.168 1020.87 401.23C1020.87 431.846 1017.47 456.322 1010.67 474.661C1003.86 493.001 993.073 506.365 978.303 514.755C963.697 523.148 944.193 527.346 919.797 527.346C898.552 527.346 881.621 525.093 869.007 520.586C856.393 516.079 845.856 508.539 837.392 497.972V612.665H799.05V286.535ZM910.586 498.204C930.005 498.204 944.693 495.486 954.652 490.047C964.608 484.607 971.58 475.126 975.564 461.605C979.547 448.084 981.539 428.036 981.539 401.462C981.539 376.595 979.547 357.791 975.564 345.047C971.746 332.303 964.941 323.369 955.148 318.239C945.355 313.11 930.834 310.546 911.581 310.546C891.333 310.546 875.979 313.188 865.523 318.473C855.067 323.601 847.763 332.691 843.616 345.747C839.465 358.647 837.392 377.763 837.392 403.092C837.392 434.796 842.868 458.575 853.823 474.429C864.942 490.279 883.861 498.204 910.586 498.204ZM1156.89 314.742H1111.58V286.302H1156.89V257.395C1156.89 238.591 1159.13 223.982 1163.61 213.569C1168.25 203.157 1175.89 195.697 1186.51 191.19C1197.14 186.683 1211.99 184.43 1231.08 184.43C1240.2 184.43 1250.24 185.285 1261.2 186.994V215.901C1249.25 214.657 1239.54 214.036 1232.07 214.036C1222.61 214.036 1215.23 214.968 1209.91 216.833C1204.6 218.543 1200.79 221.495 1198.46 225.692C1196.3 229.887 1195.23 235.716 1195.23 243.175V286.302H1256.97V314.742H1194.98V521.983H1156.89V314.742ZM1379.25 613.83C1346.39 613.83 1321.65 608.314 1305.06 597.279C1288.46 586.245 1280.08 569.385 1279.91 546.695H1319C1319.33 559.592 1324.48 569.15 1334.43 575.366C1344.39 581.585 1359.66 584.691 1380.24 584.691C1402.98 584.691 1419.49 582.206 1429.79 577.231C1440.24 572.415 1447.13 564.254 1450.45 552.755C1453.77 541.255 1455.43 523.536 1455.43 499.605V482.586C1447.13 495.33 1436.67 504.42 1424.06 509.86C1411.61 515.299 1394.85 518.021 1373.77 518.021C1349.04 518.021 1329.79 515.147 1316.01 509.395C1302.23 503.644 1292.36 494.165 1286.38 480.953C1280.58 467.589 1277.67 448.941 1277.67 425.006V286.302H1316.01V418.713C1316.01 436.741 1317.84 450.806 1321.49 460.908C1325.31 471.007 1331.53 478.235 1340.16 482.586C1348.96 486.781 1361.16 488.882 1376.76 488.882C1394.85 488.882 1409.29 486.393 1420.08 481.421C1430.86 476.447 1438.75 468.521 1443.73 457.642C1448.71 446.764 1451.2 432.31 1451.2 414.283V286.302H1489.29V500.537C1489.29 530.685 1485.97 553.843 1479.33 570.006C1472.69 586.168 1461.57 597.512 1445.97 604.04C1430.37 610.568 1408.13 613.83 1379.25 613.83Z" fill="#ACB1C5"/>
<path d="M1092.82 286.454H1053.73V521.983H1092.82V286.454Z" fill="#AAB3C5"/>
<path d="M1097.92 200.518H1050.33V245.078H1097.92V200.518Z" fill="#7E93D8"/>
<path d="M130.399 401.832L129.586 401.854L129.575 402.618L127.887 521.188H89.2275V439.23V368.412H130.417C182.366 369.335 225.653 367.276 241.018 365.22C242.842 364.978 244.633 364.781 246.409 364.586C256.127 363.527 265.389 362.514 277.112 353.921C285.704 347.622 289.688 342.253 291.906 337.045C293.009 334.455 293.665 331.927 294.242 329.4C294.378 328.802 294.51 328.207 294.641 327.612C295.071 325.667 295.501 323.716 296.103 321.679L296.119 321.625L296.126 321.57C297.835 309.568 298.241 292.188 295.884 275.9C294.705 267.754 292.831 259.858 290.07 253.034C287.312 246.217 283.646 240.415 278.845 236.519C264.905 225.207 250.387 221.897 225.656 220.412L225.629 220.411H225.601H130.425H89.2275V188.583H225.554C278.461 194.062 302.123 203.514 314.991 220.083C315.615 220.886 316.304 221.738 317.04 222.647C322.712 229.655 331.144 240.071 333.531 257.908L333.535 257.94L333.542 257.971C340.186 287.849 339.447 328.7 318.389 363.956C311.595 370.602 307.506 374.02 299.904 379.686L288.123 385.991L274.636 390.727L240.78 398.652L130.399 401.832Z" fill="#ACB1C5" stroke="#ACB1C5" stroke-width="0.5"/>
</svg>
